<svg width="42" height="41" viewBox="0 0 42 41" fill="none" xmlns="http://www.w3.org/2000/svg">
<path d="M0 3.00879V6.0175H4.87899H9.75799V9.41653V12.8074L12.7098 15.7592C14.328 17.3774 15.6778 18.7029 15.7104 18.7029C15.751 18.7029 15.7835 15.8568 15.7917 12.3765L15.8161 6.05816L17.7677 6.03376L19.7193 6.0175L22.6304 3.10636C24.2242 1.51256 25.5334 0.154574 25.5334 0.105784C25.5334 0.0244673 22.9557 7.23712e-05 12.7667 7.23712e-05H0V3.00879Z" fill="white"/>
<path d="M28.8511 6.65179C28.843 6.68432 27.3711 8.00164 25.5984 9.58732C23.8176 11.1649 22.362 12.4903 22.362 12.531C22.362 12.5716 25.2732 12.6042 29.152 12.6042H35.9419V13.0107V13.4173H32.0468H28.1518L25.3626 16.2227C23.8257 17.7678 22.5409 19.0282 22.5084 19.0282C22.4759 19.0282 22.4352 17.7759 22.4271 16.239L22.4027 13.458H19.394H16.3853L16.3609 16.426L16.3446 19.3941L19.3045 22.354C21.0935 24.143 22.297 25.2895 22.3539 25.257C22.419 25.2164 22.4433 24.3951 22.4433 22.3378L22.4352 19.4754L32.2176 19.4348C37.6008 19.4104 42 19.386 42 19.3697C42 19.3616 41.9918 16.5236 41.9837 13.0758C41.9674 9.61984 41.9593 6.74124 41.9593 6.68432C41.9593 6.61113 40.5932 6.58674 35.4215 6.58674C31.8273 6.58674 28.8674 6.61113 28.8511 6.65179Z" fill="white"/>
<path d="M9.758 15.7186V17.6864L12.7098 20.6382C14.3361 22.2646 15.686 23.5656 15.7185 23.5331C15.751 23.5006 15.7754 22.5898 15.7754 21.5164V19.5567L12.8643 16.6456C11.2705 15.0518 9.9125 13.7426 9.85558 13.7426C9.78239 13.7426 9.758 14.198 9.758 15.7186Z" fill="white"/>
<path d="M16.3446 22.3052V24.2893L19.3127 27.1923C20.939 28.7942 22.3132 30.079 22.362 30.0465C22.4108 30.014 22.4433 29.3065 22.4433 28.1112V26.2246L19.4916 23.2728C17.8734 21.6546 16.4991 20.3292 16.4422 20.3292C16.369 20.3292 16.3446 20.7846 16.3446 22.3052Z" fill="white"/>
<path d="M9.758 22.0612V23.5412L12.7098 26.493C14.328 28.1112 15.6778 29.4366 15.7185 29.4366C15.751 29.4366 15.7754 28.7536 15.7754 27.9079V26.3873L12.8643 23.4761C11.2705 21.8823 9.9125 20.5731 9.85558 20.5731C9.78239 20.5731 9.758 20.9309 9.758 22.0612Z" fill="white"/>
<path d="M16.3446 28.6478V30.1278L19.3127 33.0959C21.679 35.454 22.297 36.0395 22.362 35.9419C22.4027 35.8769 22.4433 35.202 22.4433 34.4376V33.0633L19.4997 30.1115C17.8734 28.4852 16.5072 27.1597 16.4503 27.1597C16.369 27.1597 16.3446 27.5013 16.3446 28.6478Z" fill="white"/>
<path d="M9.758 27.9161V28.4202L12.7098 31.372C14.328 32.9902 15.6778 34.3157 15.7185 34.3157C15.751 34.3157 15.7754 34.0717 15.7754 33.7627V33.2179L12.8643 30.3068C11.2705 28.713 9.9125 27.4038 9.85558 27.4038C9.79052 27.4038 9.758 27.5583 9.758 27.9161Z" fill="white"/>
<path d="M16.3446 34.4945V35.0068L19.3127 37.9749C22.5165 41.1706 22.4433 41.1137 22.4433 40.2924V39.894L19.4997 36.9422C17.8734 35.3158 16.5072 33.9904 16.4503 33.9904C16.3771 33.9904 16.3446 34.1449 16.3446 34.4945Z" fill="white"/>
</svg>
